<!DOCTYPE svg PUBLIC "-//W3C//DTD SVG 1.1//EN" "http://www.w3.org/Graphics/SVG/1.1/DTD/svg11.dtd">
<!-- Uploaded to: SVG Repo, www.svgrepo.com, Transformed by: SVG Repo Mixer Tools -->
<svg fill="#000000" height="800px" width="800px" version="1.1" id="Icons" xmlns="http://www.w3.org/2000/svg" xmlns:xlink="http://www.w3.org/1999/xlink" viewBox="0 0 32 32" xml:space="preserve">
<g id="SVGRepo_bgCarrier" stroke-width="0"/>
<g id="SVGRepo_tracerCarrier" stroke-linecap="round" stroke-linejoin="round"/>
<g id="SVGRepo_iconCarrier"> <path d="M29.9,16.5C29.7,16.2,29.4,16,29,16c-2.2,0-4.3,1-5.6,2.8L22.5,20c-1.1,1.3-2.8,2-4.5,2h-3c-0.6,0-1-0.4-1-1s0.4-1,1-1h1.9 c1.6,0,3.1-1.3,3.1-2.9c0,0,0-0.1,0-0.1c0-0.5-0.5-1-1-1l-6.1,0c-3.6,0-6.5,1.6-8.1,4.2l-2.7,4.2c-0.2,0.3-0.2,0.7,0,1l3,5 c0.1,0.2,0.4,0.4,0.6,0.5c0.1,0,0.1,0,0.2,0c0.2,0,0.4-0.1,0.6-0.2c3.8-2.5,8.2-3.8,12.7-3.8c3.3,0,6.3-1.8,7.9-4.7l2.7-4.8 C30,17.2,30,16.8,29.9,16.5z"/> <path d="M11,11v3.2c0.6-0.1,1.3-0.2,1.9-0.2H19c1.3,0,2.4,0.8,2.8,2H22c0.6,0,1-0.4,1-1v-4c0.6,0,1-0.4,1-1V6c0-0.6-0.4-1-1-1h-1.2 C21.9,4.7,22,4.4,22,4c0-1.7-1.3-3-3-3c-0.8,0-1.5,0.3-2,0.8C16.5,1.3,15.8,1,15,1c-1.7,0-3,1.3-3,3c0,0.4,0.1,0.7,0.2,1H11 c-0.6,0-1,0.4-1,1v4C10,10.6,10.4,11,11,11z M18,4c0-0.6,0.4-1,1-1s1,0.4,1,1s-0.4,1-1,1h-1V4z M15,3c0.6,0,1,0.4,1,1v1h-1 c-0.6,0-1-0.4-1-1S14.4,3,15,3z"/> </g>
</svg>