<!DOCTYPE svg PUBLIC "-//W3C//DTD SVG 1.1//EN" "http://www.w3.org/Graphics/SVG/1.1/DTD/svg11.dtd">
<!-- Uploaded to: SVG Repo, www.svgrepo.com, Transformed by: SVG Repo Mixer Tools -->
<svg width="800px" height="800px" viewBox="0 0 24 24" xmlns="http://www.w3.org/2000/svg" id="package-alt" class="icon glyph" fill="#000000">
<g id="SVGRepo_bgCarrier" stroke-width="0"/>
<g id="SVGRepo_tracerCarrier" stroke-linecap="round" stroke-linejoin="round"/>
<g id="SVGRepo_iconCarrier">
<path d="M12.54,10.67l-.54.27-.54-.27-8-4s0,0,0,0h0l8-4.5a1,1,0,0,1,1,0l8,4.5h0s0,0,0,0l-4,2a.24.24,0,0,0-.09-.06l-4-2a1,1,0,0,0-.9,1.78l2.77,1.39ZM3,7.56a.06.06,0,0,1,0,0v9a1,1,0,0,0,.51.87l8,4.49v-10l-.5-.25Zm18,0-4,2V14a1,1,0,0,1-2,0V10.56l-2.5,1.25v10l8-4.49A1,1,0,0,0,21,16.5v-9A.06.06,0,0,1,21,7.56Z" style="fill:#FFF"/>
</g>
</svg>